%FSLAX45Y45*%
G04 Gerber Fmt 4.5, Leading zero omitted, Abs format (unit mm)*
G04 Created by KiCad (PCBNEW 4.0.7+dfsg1-1) date Thu Apr  5 08:31:04 2018*
%MOMM*%
%LPD*%
G01*
G04 APERTURE LIST*
%ADD10C,0.127000*%
%ADD11C,0.200000*%
%ADD12C,0.300000*%
G04 APERTURE END LIST*
D10*
D11*
X206060Y2971480D02*
X246060Y2931480D01*
X246060Y2971480D02*
X206060Y2931480D01*
X269560Y1701480D02*
X309560Y1661480D01*
X309560Y1701480D02*
X269560Y1661480D01*
X460060Y2971480D02*
X500060Y2931480D01*
X500060Y2971480D02*
X460060Y2931480D01*
X714060Y2971480D02*
X754060Y2931480D01*
X754060Y2971480D02*
X714060Y2931480D01*
X968060Y2971480D02*
X1008060Y2931480D01*
X1008060Y2971480D02*
X968060Y2931480D01*
X1222060Y2971480D02*
X1262060Y2931480D01*
X1262060Y2971480D02*
X1222060Y2931480D01*
X1476060Y2971480D02*
X1516060Y2931480D01*
X1516060Y2971480D02*
X1476060Y2931480D01*
X1666560Y1701480D02*
X1706560Y1661480D01*
X1706560Y1701480D02*
X1666560Y1661480D01*
X1730060Y2971480D02*
X1770060Y2931480D01*
X1770060Y2971480D02*
X1730060Y2931480D01*
X2365060Y2971480D02*
X2405060Y2931480D01*
X2405060Y2971480D02*
X2365060Y2931480D01*
X2365060Y1447480D02*
X2405060Y1407480D01*
X2405060Y1447480D02*
X2365060Y1407480D01*
X2746060Y1447480D02*
X2786060Y1407480D01*
X2786060Y1447480D02*
X2746060Y1407480D01*
X3000060Y1447480D02*
X3040060Y1407480D01*
X3040060Y1447480D02*
X3000060Y1407480D01*
X3254060Y2971480D02*
X3294060Y2931480D01*
X3294060Y2971480D02*
X3254060Y2931480D01*
X3254060Y1447480D02*
X3294060Y1407480D01*
X3294060Y1447480D02*
X3254060Y1407480D01*
X3508060Y2971480D02*
X3548060Y2931480D01*
X3548060Y2971480D02*
X3508060Y2931480D01*
X3508060Y1447480D02*
X3548060Y1407480D01*
X3548060Y1447480D02*
X3508060Y1407480D01*
X3762060Y3733480D02*
X3802060Y3693480D01*
X3802060Y3733480D02*
X3762060Y3693480D01*
X3762060Y2971480D02*
X3802060Y2931480D01*
X3802060Y2971480D02*
X3762060Y2931480D01*
X3762060Y1447480D02*
X3802060Y1407480D01*
X3802060Y1447480D02*
X3762060Y1407480D01*
X4016060Y3733480D02*
X4056060Y3693480D01*
X4056060Y3733480D02*
X4016060Y3693480D01*
X4016060Y2971480D02*
X4056060Y2931480D01*
X4056060Y2971480D02*
X4016060Y2931480D01*
X4016060Y1447480D02*
X4056060Y1407480D01*
X4056060Y1447480D02*
X4016060Y1407480D01*
X4270060Y3733480D02*
X4310060Y3693480D01*
X4310060Y3733480D02*
X4270060Y3693480D01*
X4270060Y2971480D02*
X4310060Y2931480D01*
X4310060Y2971480D02*
X4270060Y2931480D01*
X4270060Y1447480D02*
X4310060Y1407480D01*
X4310060Y1447480D02*
X4270060Y1407480D01*
X4524060Y3733480D02*
X4564060Y3693480D01*
X4564060Y3733480D02*
X4524060Y3693480D01*
X4524060Y1447480D02*
X4564060Y1407480D01*
X4564060Y1447480D02*
X4524060Y1407480D01*
X4778060Y5765480D02*
X4818060Y5725480D01*
X4818060Y5765480D02*
X4778060Y5725480D01*
X4778060Y3733480D02*
X4818060Y3693480D01*
X4818060Y3733480D02*
X4778060Y3693480D01*
X4778060Y1447480D02*
X4818060Y1407480D01*
X4818060Y1447480D02*
X4778060Y1407480D01*
X5032060Y5765480D02*
X5072060Y5725480D01*
X5072060Y5765480D02*
X5032060Y5725480D01*
X5032060Y3733480D02*
X5072060Y3693480D01*
X5072060Y3733480D02*
X5032060Y3693480D01*
X5159060Y2971480D02*
X5199060Y2931480D01*
X5199060Y2971480D02*
X5159060Y2931480D01*
X5159060Y1447480D02*
X5199060Y1407480D01*
X5199060Y1447480D02*
X5159060Y1407480D01*
X5286060Y5765480D02*
X5326060Y5725480D01*
X5326060Y5765480D02*
X5286060Y5725480D01*
X5286060Y3733480D02*
X5326060Y3693480D01*
X5326060Y3733480D02*
X5286060Y3693480D01*
X5540060Y5765480D02*
X5580060Y5725480D01*
X5580060Y5765480D02*
X5540060Y5725480D01*
X5540060Y3733480D02*
X5580060Y3693480D01*
X5580060Y3733480D02*
X5540060Y3693480D01*
X5794060Y5765480D02*
X5834060Y5725480D01*
X5834060Y5765480D02*
X5794060Y5725480D01*
X5794060Y3733480D02*
X5834060Y3693480D01*
X5834060Y3733480D02*
X5794060Y3693480D01*
X5794060Y3225480D02*
X5834060Y3185480D01*
X5834060Y3225480D02*
X5794060Y3185480D01*
X5794060Y291780D02*
X5834060Y251780D01*
X5834060Y291780D02*
X5794060Y251780D01*
X6048060Y5765480D02*
X6088060Y5725480D01*
X6088060Y5765480D02*
X6048060Y5725480D01*
X6048060Y3733480D02*
X6088060Y3693480D01*
X6088060Y3733480D02*
X6048060Y3693480D01*
X6048060Y3225480D02*
X6088060Y3185480D01*
X6088060Y3225480D02*
X6048060Y3185480D01*
X6228400Y2880040D02*
X6268400Y2840040D01*
X6268400Y2880040D02*
X6228400Y2840040D01*
X6302060Y5765480D02*
X6342060Y5725480D01*
X6342060Y5765480D02*
X6302060Y5725480D01*
X6302060Y3733480D02*
X6342060Y3693480D01*
X6342060Y3733480D02*
X6302060Y3693480D01*
X6302060Y3225480D02*
X6342060Y3185480D01*
X6342060Y3225480D02*
X6302060Y3185480D01*
X6556060Y5765480D02*
X6596060Y5725480D01*
X6596060Y5765480D02*
X6556060Y5725480D01*
X6556060Y3733480D02*
X6596060Y3693480D01*
X6596060Y3733480D02*
X6556060Y3693480D01*
X6556060Y3225480D02*
X6596060Y3185480D01*
X6596060Y3225480D02*
X6556060Y3185480D01*
X6810060Y5765480D02*
X6850060Y5725480D01*
X6850060Y5765480D02*
X6810060Y5725480D01*
X6810060Y3733480D02*
X6850060Y3693480D01*
X6850060Y3733480D02*
X6810060Y3693480D01*
X6810060Y3225480D02*
X6850060Y3185480D01*
X6850060Y3225480D02*
X6810060Y3185480D01*
X7064060Y5765480D02*
X7104060Y5725480D01*
X7104060Y5765480D02*
X7064060Y5725480D01*
X7064060Y3733480D02*
X7104060Y3693480D01*
X7104060Y3733480D02*
X7064060Y3693480D01*
X7064060Y3225480D02*
X7104060Y3185480D01*
X7104060Y3225480D02*
X7064060Y3185480D01*
X7318060Y5765480D02*
X7358060Y5725480D01*
X7358060Y5765480D02*
X7318060Y5725480D01*
X7318060Y3733480D02*
X7358060Y3693480D01*
X7358060Y3733480D02*
X7318060Y3693480D01*
X7318060Y3225480D02*
X7358060Y3185480D01*
X7358060Y3225480D02*
X7318060Y3185480D01*
X7572060Y5765480D02*
X7612060Y5725480D01*
X7612060Y5765480D02*
X7572060Y5725480D01*
X7572060Y3733480D02*
X7612060Y3693480D01*
X7612060Y3733480D02*
X7572060Y3693480D01*
X7572060Y3225480D02*
X7612060Y3185480D01*
X7612060Y3225480D02*
X7572060Y3185480D01*
X7826060Y3225480D02*
X7866060Y3185480D01*
X7866060Y3225480D02*
X7826060Y3185480D01*
X7826060Y291780D02*
X7866060Y251780D01*
X7866060Y291780D02*
X7826060Y251780D01*
D12*
X271429Y-465714D02*
X271429Y-165714D01*
X342857Y-165714D01*
X385714Y-180000D01*
X414286Y-208571D01*
X428571Y-237143D01*
X442857Y-294286D01*
X442857Y-337143D01*
X428571Y-394286D01*
X414286Y-422857D01*
X385714Y-451429D01*
X342857Y-465714D01*
X271429Y-465714D01*
X571429Y-465714D02*
X571429Y-265714D01*
X571429Y-322857D02*
X585714Y-294286D01*
X600000Y-280000D01*
X628571Y-265714D01*
X657143Y-265714D01*
X757143Y-465714D02*
X757143Y-265714D01*
X757143Y-165714D02*
X742857Y-180000D01*
X757143Y-194286D01*
X771429Y-180000D01*
X757143Y-165714D01*
X757143Y-194286D01*
X942857Y-465714D02*
X914286Y-451429D01*
X900000Y-422857D01*
X900000Y-165714D01*
X1100000Y-465714D02*
X1071429Y-451429D01*
X1057143Y-422857D01*
X1057143Y-165714D01*
X1442857Y-465714D02*
X1442857Y-165714D01*
X1542857Y-380000D01*
X1642857Y-165714D01*
X1642857Y-465714D01*
X1914286Y-465714D02*
X1914286Y-308571D01*
X1900000Y-280000D01*
X1871429Y-265714D01*
X1814286Y-265714D01*
X1785714Y-280000D01*
X1914286Y-451429D02*
X1885714Y-465714D01*
X1814286Y-465714D01*
X1785714Y-451429D01*
X1771429Y-422857D01*
X1771429Y-394286D01*
X1785714Y-365714D01*
X1814286Y-351429D01*
X1885714Y-351429D01*
X1914286Y-337143D01*
X2057143Y-265714D02*
X2057143Y-565714D01*
X2057143Y-280000D02*
X2085714Y-265714D01*
X2142857Y-265714D01*
X2171429Y-280000D01*
X2185714Y-294286D01*
X2200000Y-322857D01*
X2200000Y-408571D01*
X2185714Y-437143D01*
X2171429Y-451429D01*
X2142857Y-465714D01*
X2085714Y-465714D01*
X2057143Y-451429D01*
X2328572Y-437143D02*
X2342857Y-451429D01*
X2328572Y-465714D01*
X2314286Y-451429D01*
X2328572Y-437143D01*
X2328572Y-465714D01*
X2328572Y-280000D02*
X2342857Y-294286D01*
X2328572Y-308571D01*
X2314286Y-294286D01*
X2328572Y-280000D01*
X2328572Y-308571D01*
X-40000Y-940000D02*
X0Y-980000D01*
X0Y-940000D02*
X-40000Y-980000D01*
X328571Y-795714D02*
X357143Y-795714D01*
X385714Y-810000D01*
X400000Y-824286D01*
X414286Y-852857D01*
X428571Y-910000D01*
X428571Y-981429D01*
X414286Y-1038571D01*
X400000Y-1067143D01*
X385714Y-1081429D01*
X357143Y-1095714D01*
X328571Y-1095714D01*
X300000Y-1081429D01*
X285714Y-1067143D01*
X271429Y-1038571D01*
X257143Y-981429D01*
X257143Y-910000D01*
X271429Y-852857D01*
X285714Y-824286D01*
X300000Y-810000D01*
X328571Y-795714D01*
X557143Y-1067143D02*
X571429Y-1081429D01*
X557143Y-1095714D01*
X542857Y-1081429D01*
X557143Y-1067143D01*
X557143Y-1095714D01*
X828571Y-895714D02*
X828571Y-1095714D01*
X757143Y-781429D02*
X685714Y-995714D01*
X871428Y-995714D01*
X1042857Y-795714D02*
X1071429Y-795714D01*
X1100000Y-810000D01*
X1114286Y-824286D01*
X1128571Y-852857D01*
X1142857Y-910000D01*
X1142857Y-981429D01*
X1128571Y-1038571D01*
X1114286Y-1067143D01*
X1100000Y-1081429D01*
X1071429Y-1095714D01*
X1042857Y-1095714D01*
X1014286Y-1081429D01*
X1000000Y-1067143D01*
X985714Y-1038571D01*
X971429Y-981429D01*
X971429Y-910000D01*
X985714Y-852857D01*
X1000000Y-824286D01*
X1014286Y-810000D01*
X1042857Y-795714D01*
X1271429Y-1095714D02*
X1271429Y-895714D01*
X1271429Y-924286D02*
X1285714Y-910000D01*
X1314286Y-895714D01*
X1357143Y-895714D01*
X1385714Y-910000D01*
X1400000Y-938571D01*
X1400000Y-1095714D01*
X1400000Y-938571D02*
X1414286Y-910000D01*
X1442857Y-895714D01*
X1485714Y-895714D01*
X1514286Y-910000D01*
X1528571Y-938571D01*
X1528571Y-1095714D01*
X1671429Y-1095714D02*
X1671429Y-895714D01*
X1671429Y-924286D02*
X1685714Y-910000D01*
X1714286Y-895714D01*
X1757143Y-895714D01*
X1785714Y-910000D01*
X1800000Y-938571D01*
X1800000Y-1095714D01*
X1800000Y-938571D02*
X1814286Y-910000D01*
X1842857Y-895714D01*
X1885714Y-895714D01*
X1914286Y-910000D01*
X1928571Y-938571D01*
X1928571Y-1095714D01*
X2514286Y-781429D02*
X2257143Y-1167143D01*
X2900000Y-795714D02*
X2928571Y-795714D01*
X2957143Y-810000D01*
X2971428Y-824286D01*
X2985714Y-852857D01*
X3000000Y-910000D01*
X3000000Y-981429D01*
X2985714Y-1038571D01*
X2971428Y-1067143D01*
X2957143Y-1081429D01*
X2928571Y-1095714D01*
X2900000Y-1095714D01*
X2871428Y-1081429D01*
X2857143Y-1067143D01*
X2842857Y-1038571D01*
X2828571Y-981429D01*
X2828571Y-910000D01*
X2842857Y-852857D01*
X2857143Y-824286D01*
X2871428Y-810000D01*
X2900000Y-795714D01*
X3128571Y-1067143D02*
X3142857Y-1081429D01*
X3128571Y-1095714D01*
X3114286Y-1081429D01*
X3128571Y-1067143D01*
X3128571Y-1095714D01*
X3328571Y-795714D02*
X3357143Y-795714D01*
X3385714Y-810000D01*
X3400000Y-824286D01*
X3414286Y-852857D01*
X3428571Y-910000D01*
X3428571Y-981429D01*
X3414286Y-1038571D01*
X3400000Y-1067143D01*
X3385714Y-1081429D01*
X3357143Y-1095714D01*
X3328571Y-1095714D01*
X3300000Y-1081429D01*
X3285714Y-1067143D01*
X3271428Y-1038571D01*
X3257143Y-981429D01*
X3257143Y-910000D01*
X3271428Y-852857D01*
X3285714Y-824286D01*
X3300000Y-810000D01*
X3328571Y-795714D01*
X3714286Y-1095714D02*
X3542857Y-1095714D01*
X3628571Y-1095714D02*
X3628571Y-795714D01*
X3600000Y-838571D01*
X3571428Y-867143D01*
X3542857Y-881429D01*
X3971428Y-795714D02*
X3914286Y-795714D01*
X3885714Y-810000D01*
X3871428Y-824286D01*
X3842857Y-867143D01*
X3828571Y-924286D01*
X3828571Y-1038571D01*
X3842857Y-1067143D01*
X3857143Y-1081429D01*
X3885714Y-1095714D01*
X3942857Y-1095714D01*
X3971428Y-1081429D01*
X3985714Y-1067143D01*
X4000000Y-1038571D01*
X4000000Y-967143D01*
X3985714Y-938571D01*
X3971428Y-924286D01*
X3942857Y-910000D01*
X3885714Y-910000D01*
X3857143Y-924286D01*
X3842857Y-938571D01*
X3828571Y-967143D01*
X4114286Y-795714D02*
X4114286Y-852857D01*
X4228571Y-795714D02*
X4228571Y-852857D01*
X4671429Y-1210000D02*
X4657143Y-1195714D01*
X4628571Y-1152857D01*
X4614286Y-1124286D01*
X4600000Y-1081429D01*
X4585714Y-1010000D01*
X4585714Y-952857D01*
X4600000Y-881429D01*
X4614286Y-838571D01*
X4628571Y-810000D01*
X4657143Y-767143D01*
X4671429Y-752857D01*
X4914286Y-795714D02*
X4857143Y-795714D01*
X4828571Y-810000D01*
X4814286Y-824286D01*
X4785714Y-867143D01*
X4771429Y-924286D01*
X4771429Y-1038571D01*
X4785714Y-1067143D01*
X4800000Y-1081429D01*
X4828571Y-1095714D01*
X4885714Y-1095714D01*
X4914286Y-1081429D01*
X4928571Y-1067143D01*
X4942857Y-1038571D01*
X4942857Y-967143D01*
X4928571Y-938571D01*
X4914286Y-924286D01*
X4885714Y-910000D01*
X4828571Y-910000D01*
X4800000Y-924286D01*
X4785714Y-938571D01*
X4771429Y-967143D01*
X5042857Y-795714D02*
X5242857Y-795714D01*
X5114286Y-1095714D01*
X5585714Y-1095714D02*
X5585714Y-795714D01*
X5714286Y-1095714D02*
X5714286Y-938571D01*
X5700000Y-910000D01*
X5671428Y-895714D01*
X5628571Y-895714D01*
X5600000Y-910000D01*
X5585714Y-924286D01*
X5900000Y-1095714D02*
X5871428Y-1081429D01*
X5857143Y-1067143D01*
X5842857Y-1038571D01*
X5842857Y-952857D01*
X5857143Y-924286D01*
X5871428Y-910000D01*
X5900000Y-895714D01*
X5942857Y-895714D01*
X5971428Y-910000D01*
X5985714Y-924286D01*
X6000000Y-952857D01*
X6000000Y-1038571D01*
X5985714Y-1067143D01*
X5971428Y-1081429D01*
X5942857Y-1095714D01*
X5900000Y-1095714D01*
X6171428Y-1095714D02*
X6142857Y-1081429D01*
X6128571Y-1052857D01*
X6128571Y-795714D01*
X6400000Y-1081429D02*
X6371429Y-1095714D01*
X6314286Y-1095714D01*
X6285714Y-1081429D01*
X6271429Y-1052857D01*
X6271429Y-938571D01*
X6285714Y-910000D01*
X6314286Y-895714D01*
X6371429Y-895714D01*
X6400000Y-910000D01*
X6414286Y-938571D01*
X6414286Y-967143D01*
X6271429Y-995714D01*
X6528571Y-1081429D02*
X6557143Y-1095714D01*
X6614286Y-1095714D01*
X6642857Y-1081429D01*
X6657143Y-1052857D01*
X6657143Y-1038571D01*
X6642857Y-1010000D01*
X6614286Y-995714D01*
X6571429Y-995714D01*
X6542857Y-981429D01*
X6528571Y-952857D01*
X6528571Y-938571D01*
X6542857Y-910000D01*
X6571429Y-895714D01*
X6614286Y-895714D01*
X6642857Y-910000D01*
X6757143Y-1210000D02*
X6771429Y-1195714D01*
X6800000Y-1152857D01*
X6814286Y-1124286D01*
X6828571Y-1081429D01*
X6842857Y-1010000D01*
X6842857Y-952857D01*
X6828571Y-881429D01*
X6814286Y-838571D01*
X6800000Y-810000D01*
X6771429Y-767143D01*
X6757143Y-752857D01*
M02*
