G04 #@! TF.FileFunction,Copper,L2,Bot,Signal*
%FSLAX46Y46*%
G04 Gerber Fmt 4.6, Leading zero omitted, Abs format (unit mm)*
G04 Created by KiCad (PCBNEW 4.0.7+dfsg1-1) date Thu Apr  5 08:31:14 2018*
%MOMM*%
%LPD*%
G01*
G04 APERTURE LIST*
%ADD10C,0.100000*%
%ADD11C,1.778000*%
%ADD12C,2.999990*%
%ADD13C,3.516000*%
%ADD14C,1.676400*%
%ADD15C,1.000000*%
%ADD16C,0.609600*%
G04 APERTURE END LIST*
D10*
D11*
X58140600Y32054800D03*
X60680600Y32054800D03*
X63220600Y32054800D03*
X65760600Y32054800D03*
X68300600Y32054800D03*
X70840600Y32054800D03*
X73380600Y32054800D03*
X75920600Y32054800D03*
X78460600Y32054800D03*
D12*
X78460600Y2717800D03*
X58140600Y2717800D03*
D13*
X16865600Y16814800D03*
D11*
X2260600Y29514800D03*
X17500600Y29514800D03*
X14960600Y29514800D03*
D13*
X2895600Y16814800D03*
D11*
X12420600Y29514800D03*
X9880600Y29514800D03*
X7340600Y29514800D03*
X4800600Y29514800D03*
X37820600Y14274800D03*
D13*
X23850600Y29514800D03*
D11*
X47980600Y14274800D03*
X27660600Y14274800D03*
X42900600Y14274800D03*
X32740600Y14274800D03*
D13*
X51790600Y14274800D03*
D11*
X42900600Y29514800D03*
X45440600Y14274800D03*
X40360600Y14274800D03*
X35280600Y14274800D03*
X30200600Y14274800D03*
D13*
X23850600Y14274800D03*
X51790600Y29514800D03*
D11*
X32740600Y29514800D03*
X35280600Y29514800D03*
X37820600Y29514800D03*
X40360600Y29514800D03*
D14*
X75920600Y37134800D03*
X73380600Y37134800D03*
X70840600Y37134800D03*
X68300600Y37134800D03*
X65760600Y37134800D03*
X63220600Y37134800D03*
X60680600Y37134800D03*
X58140600Y37134800D03*
X55600600Y37134800D03*
X53060600Y37134800D03*
X50520600Y37134800D03*
X47980600Y37134800D03*
X45440600Y37134800D03*
X42900600Y37134800D03*
X40360600Y37134800D03*
X37820600Y37134800D03*
X47980600Y57454800D03*
X50520600Y57454800D03*
X53060600Y57454800D03*
X55600600Y57454800D03*
X58140600Y57454800D03*
X60680600Y57454800D03*
X63220600Y57454800D03*
X65760600Y57454800D03*
X68300600Y57454800D03*
X70840600Y57454800D03*
X73380600Y57454800D03*
X75920600Y57454800D03*
D15*
X62484000Y28600400D03*
D16*
X65557400Y32816800D02*
X65532000Y32867600D01*
X65532000Y32867600D02*
X72847200Y36525200D01*
X72847200Y36525200D02*
X72872600Y36550600D01*
X32766000Y15062200D02*
X33223200Y25552400D01*
X33223200Y25552400D02*
X35661600Y27990800D01*
X35661600Y27990800D02*
X44196000Y27990800D01*
X44196000Y27990800D02*
X45339000Y36372800D01*
X15494000Y28930600D02*
X17983200Y26162000D01*
X17983200Y26162000D02*
X33223200Y25552400D01*
X12979400Y28956000D02*
X27101800Y14833600D01*
X78435200Y31267400D02*
X78333600Y28600400D01*
X78333600Y28600400D02*
X62966600Y28600400D01*
X73939400Y56921400D02*
X80162400Y51155600D01*
X80162400Y51155600D02*
X80162400Y29210000D01*
X80162400Y29210000D02*
X79552800Y27381200D01*
X79552800Y27381200D02*
X35661600Y15189200D01*
X35661600Y15189200D02*
X35585400Y15011400D01*
M02*
