; NON-PLATED HOLES START AT T1
; THROUGH (PLATED) HOLES START AT T100
M48
INCH
T100C0.039370
T101C0.015748
T102C0.098425
T103C0.086614
%
T100
X013888Y011621
X014888Y005621
X024888Y012621
X025888Y022621
X021888Y022621
X020888Y014621
X024888Y022621
X029888Y014621
X000888Y011621
X003888Y011621
X027888Y014621
X028888Y012621
X027888Y012621
X015888Y014621
X014888Y011621
X018888Y014621
X022888Y014621
X023888Y014621
X022888Y012621
X014888Y014621
X020888Y022621
X012888Y011621
X029888Y022621
X006888Y011621
X029888Y012621
X025888Y014621
X026888Y012621
X021888Y014621
X004888Y011621
X018888Y022621
X015888Y005621
X026888Y014621
X028888Y022621
X030888Y012621
X023888Y012621
X013888Y005621
X019888Y014621
X005888Y011621
X016888Y005621
X027888Y022621
X017888Y005621
X019888Y022621
X022888Y022621
X016888Y011621
X016888Y014621
X002888Y011621
X011888Y005621
X023888Y022621
X010888Y005621
X026888Y022621
X018888Y005621
X025888Y012621
X024888Y014621
X015888Y011621
X028888Y014621
X017888Y014621
X012888Y005621
X001888Y011621
T101
X024600Y011261
T102
X001138Y006621
X006638Y006621
X020388Y011621
X020388Y005621
X009388Y005621
X009388Y011621
T103
X022888Y001065
X030888Y001065
T00
M30
