G04 #@! TF.FileFunction,Soldermask,Top*
%FSLAX46Y46*%
G04 Gerber Fmt 4.6, Leading zero omitted, Abs format (unit mm)*
G04 Created by KiCad (PCBNEW 4.0.7+dfsg1-1) date Thu Apr  5 08:31:14 2018*
%MOMM*%
%LPD*%
G01*
G04 APERTURE LIST*
%ADD10C,0.100000*%
%ADD11C,2.032000*%
%ADD12C,3.253990*%
%ADD13C,3.770000*%
%ADD14C,1.930400*%
%ADD15C,1.254000*%
G04 APERTURE END LIST*
D10*
D11*
X58140600Y32054800D02*
X58140600Y32054800D01*
X60680600Y32054800D02*
X60680600Y32054800D01*
X63220600Y32054800D02*
X63220600Y32054800D01*
X65760600Y32054800D02*
X65760600Y32054800D01*
X68300600Y32054800D02*
X68300600Y32054800D01*
X70840600Y32054800D02*
X70840600Y32054800D01*
X73380600Y32054800D02*
X73380600Y32054800D01*
X75920600Y32054800D02*
X75920600Y32054800D01*
X78460600Y32054800D02*
X78460600Y32054800D01*
D12*
X78460600Y2717800D02*
X78460600Y2717800D01*
X58140600Y2717800D02*
X58140600Y2717800D01*
D13*
X16865600Y16814800D02*
X16865600Y16814800D01*
D11*
X2260600Y29514800D02*
X2260600Y29514800D01*
X17500600Y29514800D02*
X17500600Y29514800D01*
X14960600Y29514800D02*
X14960600Y29514800D01*
D13*
X2895600Y16814800D02*
X2895600Y16814800D01*
D11*
X12420600Y29514800D02*
X12420600Y29514800D01*
X9880600Y29514800D02*
X9880600Y29514800D01*
X7340600Y29514800D02*
X7340600Y29514800D01*
X4800600Y29514800D02*
X4800600Y29514800D01*
X37820600Y14274800D02*
X37820600Y14274800D01*
D13*
X23850600Y29514800D02*
X23850600Y29514800D01*
D11*
X47980600Y14274800D02*
X47980600Y14274800D01*
X27660600Y14274800D02*
X27660600Y14274800D01*
X42900600Y14274800D02*
X42900600Y14274800D01*
X32740600Y14274800D02*
X32740600Y14274800D01*
D13*
X51790600Y14274800D02*
X51790600Y14274800D01*
D11*
X42900600Y29514800D02*
X42900600Y29514800D01*
X45440600Y14274800D02*
X45440600Y14274800D01*
X40360600Y14274800D02*
X40360600Y14274800D01*
X35280600Y14274800D02*
X35280600Y14274800D01*
X30200600Y14274800D02*
X30200600Y14274800D01*
D13*
X23850600Y14274800D02*
X23850600Y14274800D01*
X51790600Y29514800D02*
X51790600Y29514800D01*
D11*
X32740600Y29514800D02*
X32740600Y29514800D01*
X35280600Y29514800D02*
X35280600Y29514800D01*
X37820600Y29514800D02*
X37820600Y29514800D01*
X40360600Y29514800D02*
X40360600Y29514800D01*
D14*
X75920600Y37134800D02*
X75920600Y37134800D01*
X73380600Y37134800D02*
X73380600Y37134800D01*
X70840600Y37134800D02*
X70840600Y37134800D01*
X68300600Y37134800D02*
X68300600Y37134800D01*
X65760600Y37134800D02*
X65760600Y37134800D01*
X63220600Y37134800D02*
X63220600Y37134800D01*
X60680600Y37134800D02*
X60680600Y37134800D01*
X58140600Y37134800D02*
X58140600Y37134800D01*
X55600600Y37134800D02*
X55600600Y37134800D01*
X53060600Y37134800D02*
X53060600Y37134800D01*
X50520600Y37134800D02*
X50520600Y37134800D01*
X47980600Y37134800D02*
X47980600Y37134800D01*
X45440600Y37134800D02*
X45440600Y37134800D01*
X42900600Y37134800D02*
X42900600Y37134800D01*
X40360600Y37134800D02*
X40360600Y37134800D01*
X37820600Y37134800D02*
X37820600Y37134800D01*
X47980600Y57454800D02*
X47980600Y57454800D01*
X50520600Y57454800D02*
X50520600Y57454800D01*
X53060600Y57454800D02*
X53060600Y57454800D01*
X55600600Y57454800D02*
X55600600Y57454800D01*
X58140600Y57454800D02*
X58140600Y57454800D01*
X60680600Y57454800D02*
X60680600Y57454800D01*
X63220600Y57454800D02*
X63220600Y57454800D01*
X65760600Y57454800D02*
X65760600Y57454800D01*
X68300600Y57454800D02*
X68300600Y57454800D01*
X70840600Y57454800D02*
X70840600Y57454800D01*
X73380600Y57454800D02*
X73380600Y57454800D01*
X75920600Y57454800D02*
X75920600Y57454800D01*
D15*
X62484000Y28600400D02*
X62484000Y28600400D01*
D11*
X17500600Y29514800D02*
X17500600Y29514800D01*
M02*
