G04 #@! TF.FileFunction,Copper,L1,Top,Signal*
%FSLAX46Y46*%
G04 Gerber Fmt 4.6, Leading zero omitted, Abs format (unit mm)*
G04 Created by KiCad (PCBNEW 4.0.7+dfsg1-1) date Thu Apr  5 08:31:14 2018*
%MOMM*%
%LPD*%
G01*
G04 APERTURE LIST*
%ADD10C,0.100000*%
%ADD11C,1.778000*%
%ADD12C,2.999990*%
%ADD13C,3.516000*%
%ADD14C,1.676400*%
%ADD15C,1.000000*%
%ADD16C,0.609600*%
G04 APERTURE END LIST*
D10*
D11*
X58140600Y32054800D03*
X60680600Y32054800D03*
X63220600Y32054800D03*
X65760600Y32054800D03*
X68300600Y32054800D03*
X70840600Y32054800D03*
X73380600Y32054800D03*
X75920600Y32054800D03*
X78460600Y32054800D03*
D12*
X78460600Y2717800D03*
X58140600Y2717800D03*
D13*
X16865600Y16814800D03*
D11*
X2260600Y29514800D03*
X17500600Y29514800D03*
X14960600Y29514800D03*
D13*
X2895600Y16814800D03*
D11*
X12420600Y29514800D03*
X9880600Y29514800D03*
X7340600Y29514800D03*
X4800600Y29514800D03*
X37820600Y14274800D03*
D13*
X23850600Y29514800D03*
D11*
X47980600Y14274800D03*
X27660600Y14274800D03*
X42900600Y14274800D03*
X32740600Y14274800D03*
D13*
X51790600Y14274800D03*
D11*
X42900600Y29514800D03*
X45440600Y14274800D03*
X40360600Y14274800D03*
X35280600Y14274800D03*
X30200600Y14274800D03*
D13*
X23850600Y14274800D03*
X51790600Y29514800D03*
D11*
X32740600Y29514800D03*
X35280600Y29514800D03*
X37820600Y29514800D03*
X40360600Y29514800D03*
D14*
X75920600Y37134800D03*
X73380600Y37134800D03*
X70840600Y37134800D03*
X68300600Y37134800D03*
X65760600Y37134800D03*
X63220600Y37134800D03*
X60680600Y37134800D03*
X58140600Y37134800D03*
X55600600Y37134800D03*
X53060600Y37134800D03*
X50520600Y37134800D03*
X47980600Y37134800D03*
X45440600Y37134800D03*
X42900600Y37134800D03*
X40360600Y37134800D03*
X37820600Y37134800D03*
X47980600Y57454800D03*
X50520600Y57454800D03*
X53060600Y57454800D03*
X55600600Y57454800D03*
X58140600Y57454800D03*
X60680600Y57454800D03*
X63220600Y57454800D03*
X65760600Y57454800D03*
X68300600Y57454800D03*
X70840600Y57454800D03*
X73380600Y57454800D03*
X75920600Y57454800D03*
D15*
X62484000Y28600400D03*
D16*
X68656200Y32766000D02*
X70485000Y36449000D01*
X63449200Y31318200D02*
X63703200Y30429200D01*
X63703200Y30429200D02*
X79552800Y30429200D01*
X79552800Y30429200D02*
X80162400Y31038800D01*
X80162400Y31038800D02*
X80162400Y34086800D01*
X80162400Y34086800D02*
X76555600Y36677600D01*
X40944800Y36626800D02*
X44500800Y33477200D01*
X44500800Y33477200D02*
X44196000Y27990800D01*
X44196000Y27990800D02*
X32004000Y15798800D01*
X32004000Y15798800D02*
X28346400Y15798800D01*
X28346400Y15798800D02*
X27990800Y14986000D01*
X62026800Y28778200D02*
X52730400Y32258000D01*
X52730400Y32258000D02*
X44500800Y33477200D01*
X5130800Y28803600D02*
X5791200Y27381200D01*
X5791200Y27381200D02*
X21640800Y27381200D01*
X21640800Y27381200D02*
X30784800Y17018000D01*
X30784800Y17018000D02*
X22860000Y17018000D01*
X22860000Y17018000D02*
X21031200Y15189200D01*
X21031200Y15189200D02*
X21640800Y11531600D01*
X21640800Y11531600D02*
X34442400Y13055600D01*
X34442400Y13055600D02*
X34823400Y13639800D01*
X2692400Y28854400D02*
X3657600Y27381200D01*
X3657600Y27381200D02*
X20421600Y17627600D01*
X20421600Y17627600D02*
X19812000Y16408400D01*
X19812000Y16408400D02*
X20421600Y10312400D01*
X20421600Y10312400D02*
X26517600Y10312400D01*
X26517600Y10312400D02*
X38100000Y12750800D01*
X38100000Y12750800D02*
X37973000Y13512800D01*
X76479400Y56921400D02*
X81381600Y52374800D01*
X81381600Y52374800D02*
X81381600Y29819600D01*
X81381600Y29819600D02*
X38100000Y15189200D01*
X38100000Y15189200D02*
X38049200Y15036800D01*
M02*
