M48
;DRILL file {KiCad 4.0.7+dfsg1-1} date Thu Apr  5 08:31:01 2018
;FORMAT={-:-/ absolute / metric / decimal}
FMAT,2
METRIC,TZ
T1C0.400
%
G90
G05
M71
T1
X2.261Y29.515
X2.896Y16.815
X4.801Y29.515
X7.341Y29.515
X9.881Y29.515
X12.421Y29.515
X14.961Y29.515
X16.866Y16.815
X17.501Y29.515
X23.851Y29.515
X23.851Y14.275
X27.661Y14.275
X30.201Y14.275
X32.741Y29.515
X32.741Y14.275
X35.281Y29.515
X35.281Y14.275
X37.821Y37.135
X37.821Y29.515
X37.821Y14.275
X40.361Y37.135
X40.361Y29.515
X40.361Y14.275
X42.901Y37.135
X42.901Y29.515
X42.901Y14.275
X45.441Y37.135
X45.441Y14.275
X47.981Y57.455
X47.981Y37.135
X47.981Y14.275
X50.521Y57.455
X50.521Y37.135
X51.791Y29.515
X51.791Y14.275
X53.061Y57.455
X53.061Y37.135
X55.601Y57.455
X55.601Y37.135
X58.141Y57.455
X58.141Y37.135
X58.141Y32.055
X58.141Y2.718
X60.681Y57.455
X60.681Y37.135
X60.681Y32.055
X62.484Y28.6
X63.221Y57.455
X63.221Y37.135
X63.221Y32.055
X65.761Y57.455
X65.761Y37.135
X65.761Y32.055
X68.301Y57.455
X68.301Y37.135
X68.301Y32.055
X70.841Y57.455
X70.841Y37.135
X70.841Y32.055
X73.381Y57.455
X73.381Y37.135
X73.381Y32.055
X75.921Y57.455
X75.921Y37.135
X75.921Y32.055
X78.461Y32.055
X78.461Y2.718
T0
M30
